<?xml version="1.0" encoding="utf-8"?>
<!-- Svg Vector Icons : http://www.onlinewebfonts.com/icon -->
<!DOCTYPE svg PUBLIC "-//W3C//DTD SVG 1.1//EN" "http://www.w3.org/Graphics/SVG/1.1/DTD/svg11.dtd">
<svg version="1.1" xmlns="http://www.w3.org/2000/svg" xmlns:xlink="http://www.w3.org/1999/xlink" x="0px" y="0px" viewBox="0 0 256 256" enable-background="new 0 0 256 256" xml:space="preserve">
<metadata> Svg Vector Icons : http://www.onlinewebfonts.com/icon </metadata>
<g><g><g><path fill="#000000" d="M27.1,37.5c-8.1,1.6-15.2,9.1-16.5,17.5c-0.3,2-0.5,21.5-0.5,57.4c0,59,0,57.8,2.5,62.9c1.5,3,5.3,7.1,7.8,8.6c5,2.9,1.2,2.7,54.6,3l48.6,0.2l0.1,11.6l0.1,11.7l-23.6,0.1l-23.6,0.1l-0.1,4.2l-0.1,4.3H128h51.7l-0.1-4.3l-0.1-4.2l-23.6-0.1l-23.6-0.1l0.1-11.7l0.1-11.6l48.6-0.2c53.4-0.2,49.6,0,54.6-3c2.6-1.5,6.4-5.6,7.8-8.6c2.6-5.1,2.5-3.9,2.5-62.9c0-35.9-0.2-55.4-0.5-57.4c-1.3-8.3-7.6-15.1-15.9-17.3C227.2,37,215.5,36.9,128,37C73.3,37,28.2,37.2,27.1,37.5z M229.2,46.4c2.9,1.2,5.1,3.4,6.6,6.3l1.4,2.8v56.1c0,63.7,0.3,58.8-3.9,62.9c-4.3,4.3,6,3.9-105.3,3.9c-108.5,0-100.8,0.2-104.6-3c-1.1-0.9-2.5-2.6-3.2-3.8l-1.2-2.2l-0.1-56.9l-0.1-56.9l1.4-2.9c1.5-3.1,4-5.4,6.8-6.4c1.4-0.5,20.3-0.6,101.2-0.6C215.1,45.7,227.8,45.8,229.2,46.4z"/><path fill="#000000" d="M106.3,111.2c0,17.2,0,31.3,0.1,31.3s11.9-6.8,26.2-15c14.3-8.2,26.5-15.3,27.1-15.6c1-0.6-0.2-1.3-17.7-11.4c-10.3-6-22.6-13-27.2-15.7l-8.4-4.9V111.2z"/></g></g></g>
</svg>